<svg version="1.1" id="Layer_1" xmlns="http://www.w3.org/2000/svg" xmlns:xlink="http://www.w3.org/1999/xlink" x="0px" y="0px"
	 width="100%" viewBox="0 0 125 139" enable-background="new 0 0 125 139" xml:space="preserve">
<path fill="#FBFBFC" opacity="1.000000" stroke="none" 
	d="
M70.000000,1.000000 
	C88.650917,1.000000 107.301842,1.000000 125.976379,1.000000 
	C125.976379,47.278492 125.976379,93.556999 125.976379,139.917755 
	C84.423454,139.917755 42.846691,139.917755 1.134964,139.917755 
	C1.134964,93.666916 1.134964,47.333519 1.134964,1.000000 
	C20.762495,1.000000 40.412590,1.000000 60.531410,1.398741 
	C60.998253,3.126159 60.996368,4.454835 60.596901,5.896207 
	C56.558094,6.707484 52.916870,7.406066 48.951485,8.084721 
	C48.087730,8.359317 47.548138,8.653841 46.736259,9.172803 
	C24.495188,19.338459 9.981520,43.167561 14.820490,61.544060 
	C16.709167,61.544060 18.632067,61.544060 21.075285,61.544060 
	C20.402004,48.084751 23.846272,36.034313 32.500145,25.823860 
	C41.263107,15.484702 52.345947,9.422336 66.494263,8.534891 
	C70.126587,8.702990 73.288971,8.474448 76.390961,8.807861 
	C79.550056,9.147413 83.450966,8.833106 83.354614,13.651615 
	C79.651588,13.429159 76.399849,13.212082 73.148109,12.995005 
	C73.106590,13.520227 73.065063,14.045449 73.023544,14.570671 
	C74.200684,14.798691 75.373466,15.052756 76.555634,15.250769 
	C90.957672,17.663111 101.920197,25.079493 108.554146,38.140305 
	C110.392433,41.759521 112.387253,42.599834 116.315933,41.366199 
	C110.902573,27.350271 100.598724,19.013144 86.954559,13.966640 
	C86.899429,12.318549 87.218201,10.083316 86.631866,9.813262 
	C83.294296,8.276063 79.793831,7.014342 76.244110,6.040319 
	C73.320984,5.238230 70.280319,4.931121 70.000000,1.000000 
M79.665077,124.466331 
	C79.717079,124.652359 79.769081,124.838379 79.410339,125.256882 
	C79.205276,125.515022 79.107269,125.808891 79.064117,126.591568 
	C79.064117,126.591568 79.219864,127.020241 78.973511,127.585884 
	C78.572456,128.052399 78.171402,128.518906 77.148354,128.983368 
	C76.438118,128.671860 75.727875,128.360336 75.039307,127.242989 
	C74.988930,126.440048 74.938553,125.637115 74.918831,124.444481 
	C74.918831,124.444481 74.870285,124.056602 75.347176,123.795204 
	C75.270752,123.210663 75.194336,122.626114 75.284805,121.252121 
	C75.727501,117.862907 73.847908,116.034500 70.827347,114.566574 
	C70.558846,114.632072 70.290344,114.697571 69.134384,114.891563 
	C66.746857,114.831764 64.359322,114.771965 61.783100,114.454613 
	C61.454319,114.289467 61.201115,114.381584 60.421669,115.086075 
	C59.945618,116.389961 59.469566,117.693848 58.257534,119.000603 
	C57.276382,118.995453 56.295227,118.990303 55.017754,118.288292 
	C52.872997,113.708969 48.616756,115.080147 44.766865,114.467094 
	C44.416100,114.327148 44.164650,114.446129 43.377682,115.140877 
	C39.570816,116.932793 36.798695,119.221115 39.074371,124.536560 
	C39.362465,124.774391 39.650562,125.012230 40.188866,125.924202 
	C40.337482,126.112259 40.486095,126.300308 40.828400,127.179634 
	C40.672085,127.854691 40.515770,128.529739 39.528572,129.131729 
	C38.524895,130.114456 37.521217,131.097168 36.322323,132.278885 
	C36.226448,132.579147 36.325939,132.803711 36.933983,133.651794 
	C41.598461,139.000900 49.750050,138.307480 53.698162,131.700668 
	C53.712261,128.977203 53.900158,126.150131 50.067341,125.265030 
	C50.067341,125.265030 49.920914,124.860664 49.948753,124.513153 
	C49.948753,124.513153 49.930515,124.164993 49.974155,123.580048 
	C49.985218,123.189285 49.996281,122.798515 50.820099,122.270386 
	C52.312618,121.851799 53.805138,121.433212 55.916351,121.023895 
	C56.865211,121.670532 57.814068,122.317177 58.899445,123.363808 
	C58.899445,123.363808 59.006874,123.772575 58.709461,124.418152 
	C58.794140,124.638443 58.878819,124.858742 58.847980,125.784843 
	C58.393608,127.048546 57.939236,128.312256 57.328308,130.189606 
	C57.165142,130.800537 57.001976,131.411469 56.417263,132.473862 
	C56.382687,132.876999 56.348114,133.280136 56.573677,134.337738 
	C56.822796,135.053925 56.882290,136.219360 57.350323,136.416916 
	C62.118191,138.429413 69.968842,136.107071 74.460831,131.926529 
	C75.142807,131.981598 75.824791,132.036652 76.326378,132.792908 
	C76.089958,133.970688 75.853539,135.148468 75.599953,136.411789 
	C78.866180,136.965683 81.495262,137.397430 82.422264,133.439651 
	C82.574188,132.791016 84.769875,132.621048 86.207993,132.556992 
	C86.369972,132.759018 86.573723,132.901215 86.972145,133.780869 
	C87.303741,138.958939 90.501305,136.132751 92.867004,136.224091 
	C92.867004,133.925140 92.867004,131.986481 92.830704,129.443680 
	C92.853249,128.340637 92.875786,127.237602 92.934425,125.491692 
	C92.924652,125.277283 92.914886,125.062866 92.919701,124.449249 
	C92.919701,124.449249 92.853203,124.055359 93.350517,123.754654 
	C93.183624,123.149055 93.016731,122.543449 92.946114,121.052818 
	C92.946114,119.133011 92.946114,117.213211 92.946114,114.798828 
	C88.555252,115.804314 83.762070,112.357750 80.612465,118.127281 
	C80.495132,119.118385 80.377800,120.109489 80.340279,121.640373 
	C80.356552,122.003693 80.372826,122.367020 80.034859,123.294594 
	C80.001328,123.514130 79.967804,123.733658 79.665077,124.466331 
M35.196140,66.286301 
	C34.952805,65.964165 34.709469,65.642021 34.466137,65.319885 
	C34.281013,65.955467 34.095894,66.591042 34.061916,67.875633 
	C34.952503,68.022072 35.843094,68.168510 36.733681,68.314949 
	C36.228035,67.871796 35.722389,67.428635 35.196140,66.286301 
M73.998589,108.736237 
	C74.345787,108.452583 74.692986,108.168930 74.921112,107.373093 
	C73.141106,107.138603 71.367691,106.792801 69.580070,106.686790 
	C50.711880,105.567886 36.109417,97.278664 27.084675,80.494812 
	C24.758108,76.167953 22.227995,75.539413 17.723450,76.632462 
	C25.295685,93.951927 38.229267,103.991333 56.538513,108.641380 
	C57.228825,108.697845 57.919136,108.754303 59.443489,108.595352 
	C64.064598,108.646271 68.685699,108.697197 73.998589,108.736237 
M67.490440,62.389252 
	C65.165413,66.407234 65.709106,68.756714 70.295113,70.091225 
	C74.298309,71.256149 78.636108,71.271187 82.880692,71.801079 
	C83.035416,72.796898 83.217896,73.971359 83.497391,75.770256 
	C86.903854,72.754242 89.715149,70.265167 92.838692,67.499641 
	C89.552559,65.102425 86.650826,62.985630 83.358749,60.584084 
	C82.877571,62.359257 82.525848,63.656864 82.187416,64.905403 
	C77.427498,65.264664 72.867157,66.016060 69.809349,61.371948 
	C69.668343,61.157787 68.461441,61.645435 67.293968,61.040531 
	C71.395355,51.655487 73.096878,50.541245 82.231216,51.451080 
	C82.510201,52.771229 82.804916,54.165855 83.187759,55.977489 
	C86.522736,53.549232 89.548401,51.346180 92.930244,48.883801 
	C89.646774,45.997898 86.848381,43.538334 83.717583,40.786621 
	C83.191338,42.592075 82.825676,43.846565 82.490395,44.996849 
	C69.323242,44.749783 69.129684,44.847668 63.099228,53.474586 
	C64.929161,47.139633 54.600445,43.485023 46.811829,46.081459 
	C46.811829,47.625721 46.811829,49.216854 46.811829,51.116508 
	C49.304211,51.365105 51.744648,51.173016 53.835327,51.937473 
	C55.999008,52.728619 57.735626,54.625595 59.843204,55.665714 
	C60.588985,56.033764 61.877445,55.302204 62.486408,56.018398 
	C59.520931,63.201874 54.135090,66.291542 46.270267,64.879616 
	C46.270267,67.202637 46.270267,68.905113 46.270267,70.532150 
	C54.574184,72.211739 61.297493,70.671280 65.666313,63.027374 
	C66.049118,62.357597 67.137871,62.091290 67.490440,62.389252 
M109.387489,74.691116 
	C102.878059,88.391716 91.667885,96.043533 77.428200,100.113205 
	C87.817200,101.046448 96.203262,96.023880 104.149040,90.296501 
	C115.006302,82.470467 121.676392,63.644924 118.356316,51.627369 
	C116.592751,51.627369 114.883026,51.627369 114.465271,51.627369 
	C112.799744,59.525574 111.272186,66.769539 109.387489,74.691116 
M79.861824,106.599319 
	C79.348877,106.316513 78.835930,106.033699 78.322983,105.750885 
	C78.121452,106.326241 77.919922,106.901604 77.718399,107.476959 
	C78.385788,107.380264 79.053169,107.283569 79.861824,106.599319 
z"/>
<path fill="#F9F7F7" opacity="1.000000" stroke="none" 
	d="
M69.550018,1.000000 
	C70.280319,4.931121 73.320984,5.238230 76.244110,6.040319 
	C79.793831,7.014342 83.294296,8.276063 86.631866,9.813262 
	C87.218201,10.083316 86.899429,12.318549 86.634583,13.966166 
	C85.448975,14.076409 84.627441,13.866701 83.805908,13.656994 
	C83.450966,8.833106 79.550056,9.147413 76.390961,8.807861 
	C73.288971,8.474448 70.126587,8.702990 66.821213,8.340535 
	C67.319298,7.475614 67.986885,6.955076 69.489418,5.783512 
	C65.997627,5.783512 63.496056,5.783512 60.994484,5.783512 
	C60.996368,4.454835 60.998253,3.126159 61.000069,1.398741 
	C63.700016,1.000000 66.400032,1.000000 69.550018,1.000000 
z"/>
<path fill="#AE3420" opacity="1.000000" stroke="none" 
	d="
M60.596901,5.896207 
	C63.496056,5.783512 65.997627,5.783512 69.489418,5.783512 
	C67.986885,6.955076 67.319298,7.475614 66.324760,8.190508 
	C52.345947,9.422336 41.263107,15.484702 32.500145,25.823860 
	C23.846272,36.034313 20.402004,48.084751 21.075285,61.544060 
	C18.632067,61.544060 16.709167,61.544060 14.820490,61.544060 
	C9.981520,43.167561 24.495188,19.338459 47.054306,9.185909 
	C48.188309,8.684602 48.731979,8.394626 49.275650,8.104649 
	C52.916870,7.406066 56.558094,6.707484 60.596901,5.896207 
z"/>
<path fill="#BC361E" opacity="1.000000" stroke="none" 
	d="
M63.130169,54.571419 
	C69.129684,44.847668 69.323242,44.749783 82.490395,44.996849 
	C82.825676,43.846565 83.191338,42.592075 83.717583,40.786621 
	C86.848381,43.538334 89.646774,45.997898 92.930244,48.883801 
	C89.548401,51.346180 86.522736,53.549232 83.187759,55.977489 
	C82.804916,54.165855 82.510201,52.771229 82.231216,51.451080 
	C73.096878,50.541245 71.395355,51.655487 67.551056,61.397526 
	C67.808144,61.754520 67.898720,61.637573 67.898720,61.637573 
	C67.137871,62.091290 66.049118,62.357597 65.666313,63.027374 
	C61.297493,70.671280 54.574184,72.211739 46.270267,70.532150 
	C46.270267,68.905113 46.270267,67.202637 46.270267,64.879616 
	C54.135090,66.291542 59.520931,63.201874 62.674957,55.564400 
	C62.986565,54.853951 63.075451,54.674290 63.130169,54.571419 
z"/>
<path fill="#AE321E" opacity="1.000000" stroke="none" 
	d="
M109.566055,74.352310 
	C111.272186,66.769539 112.799744,59.525574 114.465271,51.627369 
	C114.883026,51.627369 116.592751,51.627369 118.356316,51.627369 
	C121.676392,63.644924 115.006302,82.470467 104.149040,90.296501 
	C96.203262,96.023880 87.817200,101.046448 77.428200,100.113205 
	C91.667885,96.043533 102.878059,88.391716 109.566055,74.352310 
z"/>
<path fill="#3D459D" opacity="1.000000" stroke="none" 
	d="
M56.024761,108.167786 
	C38.229267,103.991333 25.295685,93.951927 17.723450,76.632462 
	C22.227995,75.539413 24.758108,76.167953 27.084675,80.494812 
	C36.109417,97.278664 50.711880,105.567886 69.580070,106.686790 
	C71.367691,106.792801 73.141106,107.138603 74.658150,107.722046 
	C74.032394,108.296715 73.669601,108.522415 73.306808,108.748123 
	C68.685699,108.697197 64.064598,108.646271 58.766293,108.464981 
	C57.400986,108.278992 56.712872,108.223389 56.024761,108.167786 
z"/>
<path fill="#3F469D" opacity="1.000000" stroke="none" 
	d="
M83.354614,13.651615 
	C84.627441,13.866701 85.448975,14.076409 86.590485,14.286592 
	C100.598724,19.013144 110.902573,27.350271 116.315933,41.366199 
	C112.387253,42.599834 110.392433,41.759521 108.554146,38.140305 
	C101.920197,25.079493 90.957672,17.663111 76.555634,15.250769 
	C75.373466,15.052756 74.200684,14.798691 73.023544,14.570671 
	C73.065063,14.045449 73.106590,13.520227 73.148109,12.995005 
	C76.399849,13.212082 79.651588,13.429159 83.354614,13.651615 
z"/>
<path fill="#38429E" opacity="1.000000" stroke="none" 
	d="
M67.694580,62.013412 
	C67.898720,61.637573 67.808144,61.754520 67.779556,61.780369 
	C68.461441,61.645435 69.668343,61.157787 69.809349,61.371948 
	C72.867157,66.016060 77.427498,65.264664 82.187416,64.905403 
	C82.525848,63.656864 82.877571,62.359257 83.358749,60.584084 
	C86.650826,62.985630 89.552559,65.102425 92.838692,67.499641 
	C89.715149,70.265167 86.903854,72.754242 83.497391,75.770256 
	C83.217896,73.971359 83.035416,72.796898 82.880692,71.801079 
	C78.636108,71.271187 74.298309,71.256149 70.295113,70.091225 
	C65.709106,68.756714 65.165413,66.407234 67.694580,62.013412 
z"/>
<path fill="#4E5AA6" opacity="1.000000" stroke="none" 
	d="
M86.020973,132.229858 
	C84.769875,132.621048 82.574188,132.791016 82.422264,133.439651 
	C81.495262,137.397430 78.866180,136.965683 75.599953,136.411789 
	C75.853539,135.148468 76.089958,133.970688 76.574066,132.210999 
	C77.137955,130.747864 77.454155,129.866638 77.770355,128.985428 
	C78.171402,128.518906 78.572456,128.052399 79.266823,127.222664 
	C79.772705,126.714325 79.931938,126.524475 80.411057,126.243240 
	C81.854828,125.804192 82.925385,125.411781 83.992599,124.782776 
	C83.989250,124.546188 83.961617,124.073822 84.204453,124.058418 
	C84.447289,124.043015 84.933701,124.027878 85.146858,124.293938 
	C86.252586,124.698074 87.145157,124.836143 87.954567,125.246445 
	C87.782043,125.685913 87.692688,125.853149 87.492050,126.288101 
	C89.209518,127.719826 91.038261,128.883820 92.867004,130.047821 
	C92.867004,131.986481 92.867004,133.925140 92.867004,136.224091 
	C90.501305,136.132751 87.303741,138.958939 86.919647,133.139771 
	C86.666275,132.153519 86.384224,132.063919 86.020973,132.229858 
z"/>
<path fill="#3D489F" opacity="1.000000" stroke="none" 
	d="
M63.114700,54.023003 
	C63.075451,54.674290 62.986565,54.853951 62.890827,55.091534 
	C61.877445,55.302204 60.588985,56.033764 59.843204,55.665714 
	C57.735626,54.625595 55.999008,52.728619 53.835327,51.937473 
	C51.744648,51.173016 49.304211,51.365105 46.811829,51.116508 
	C46.811829,49.216854 46.811829,47.625721 46.811829,46.081459 
	C54.600445,43.485023 64.929161,47.139633 63.114700,54.023003 
z"/>
<path fill="#454FA2" opacity="1.000000" stroke="none" 
	d="
M56.838814,132.022400 
	C57.001976,131.411469 57.165142,130.800537 57.772877,129.770569 
	C59.768265,129.305008 61.319084,129.258499 62.921864,129.554657 
	C65.663216,132.599014 67.797615,131.736145 70.014229,126.891182 
	C70.075081,126.706627 70.116753,126.320213 70.459808,126.274094 
	C71.493332,126.253456 72.183800,126.278923 72.887367,126.484650 
	C72.900467,126.664909 73.002373,127.011703 72.970398,127.371384 
	C73.107170,129.086075 73.275917,130.441101 73.444664,131.796112 
	C69.968842,136.107071 62.118191,138.429413 57.350323,136.416916 
	C56.882290,136.219360 56.822796,135.053925 56.672562,133.796112 
	C56.793903,132.843796 56.816357,132.433090 56.838814,132.022400 
z"/>
<path fill="#B73520" opacity="1.000000" stroke="none" 
	d="
M58.993515,118.997734 
	C59.469566,117.693848 59.945618,116.389961 60.961010,114.972252 
	C61.500351,114.858429 61.971790,114.712166 61.971790,114.712166 
	C64.359322,114.771965 66.746857,114.831764 69.813385,114.919693 
	C70.658508,114.919579 70.824646,114.891335 70.990776,114.863083 
	C73.847908,116.034500 75.727501,117.862907 74.911606,121.675728 
	C74.032280,122.664146 73.526146,123.228951 72.650467,123.865585 
	C71.529480,123.919754 70.778023,123.902092 69.926208,123.544708 
	C67.366585,118.831551 67.187706,118.845108 61.652771,123.869492 
	C60.521259,123.886253 59.764065,123.829414 59.006874,123.772575 
	C59.006874,123.772575 58.899445,123.363808 58.928741,122.776306 
	C58.969860,121.125107 58.981686,120.061424 58.993515,118.997734 
z"/>
<path fill="#B83620" opacity="1.000000" stroke="none" 
	d="
M39.144497,123.964722 
	C36.798695,119.221115 39.570816,116.932793 43.942024,115.021988 
	C44.662041,114.843437 44.817715,114.783791 44.973392,114.724136 
	C48.616756,115.080147 52.872997,113.708969 55.096504,118.972130 
	C55.216057,120.108856 55.256859,120.561737 55.297657,121.014626 
	C53.805138,121.433212 52.312618,121.851799 50.154449,122.045303 
	C46.135983,118.532562 45.126888,118.848595 42.671448,123.896118 
	C41.237808,123.960312 40.191151,123.962517 39.144497,123.964722 
z"/>
<path fill="#B73A26" opacity="1.000000" stroke="none" 
	d="
M88.037727,124.974213 
	C87.145157,124.836143 86.252586,124.698074 85.013496,123.957901 
	C83.241020,123.147308 81.815063,122.938820 80.389107,122.730331 
	C80.372826,122.367020 80.356552,122.003693 80.528091,121.139709 
	C80.921745,119.801682 81.127586,118.964325 81.333435,118.126968 
	C83.762070,112.357750 88.555252,115.804314 92.946114,114.798828 
	C92.946114,117.213211 92.946114,119.133011 92.639938,121.586487 
	C91.897484,122.687927 91.461197,123.255692 90.673218,123.888489 
	C89.529861,124.308784 88.738182,124.664040 87.961731,124.992676 
	C87.976959,124.966072 88.037727,124.974213 88.037727,124.974213 
z"/>
<path fill="#444EA1" opacity="1.000000" stroke="none" 
	d="
M53.227650,132.265762 
	C49.750050,138.307480 41.598461,139.000900 36.811295,133.076996 
	C36.688610,132.502197 36.517540,132.079895 36.517540,132.079895 
	C37.521217,131.097168 38.524895,130.114456 40.137123,129.210510 
	C41.026649,129.316498 41.271309,129.234879 41.666538,129.357285 
	C43.340458,133.491791 45.223667,131.723007 47.517845,129.997009 
	C49.699245,130.723236 51.463448,131.494507 53.227650,132.265762 
z"/>
<path fill="#7582B2" opacity="1.000000" stroke="none" 
	d="
M53.462906,131.983215 
	C51.463448,131.494507 49.699245,130.723236 47.467545,129.609650 
	C45.354473,124.374855 43.354427,128.260696 41.479649,129.044388 
	C41.271309,129.234879 41.026649,129.316498 40.552567,129.247040 
	C40.515770,128.529739 40.672085,127.854691 41.102104,126.682083 
	C44.289032,126.020195 47.202251,125.855858 50.115475,125.691513 
	C53.900158,126.150131 53.712261,128.977203 53.462906,131.983215 
z"/>
<path fill="#F5F4F6" opacity="1.000000" stroke="none" 
	d="
M43.058430,123.834122 
	C45.126888,118.848595 46.135983,118.532562 49.748070,122.113983 
	C49.996281,122.798515 49.985218,123.189285 49.523590,123.847862 
	C47.068161,124.021828 45.063293,123.927971 43.058430,123.834122 
z"/>
<path fill="#C7D2E5" opacity="1.000000" stroke="none" 
	d="
M62.869904,129.211975 
	C61.319084,129.258499 59.768265,129.305008 57.851154,129.463745 
	C57.939236,128.312256 58.393608,127.048546 59.313187,125.395294 
	C60.863819,125.060463 61.949238,125.115196 63.018135,125.573975 
	C62.957706,127.056007 62.913803,128.134003 62.869904,129.211975 
z"/>
<path fill="#7987B5" opacity="1.000000" stroke="none" 
	d="
M92.848854,129.745758 
	C91.038261,128.883820 89.209518,127.719826 87.945740,126.265015 
	C89.973236,126.027657 91.435783,126.081108 92.898323,126.134567 
	C92.875786,127.237602 92.853249,128.340637 92.848854,129.745758 
z"/>
<path fill="#F5F4F6" opacity="1.000000" stroke="none" 
	d="
M73.952744,131.861328 
	C73.275917,130.441101 73.107170,129.086075 73.227051,127.387024 
	C73.684395,127.073280 73.853096,127.103569 74.115875,127.352684 
	C74.420677,127.829590 74.689903,127.988693 75.017639,128.048828 
	C75.727875,128.360336 76.438118,128.671860 77.459351,128.984406 
	C77.454155,129.866638 77.137955,130.747864 76.664261,131.860382 
	C75.824791,132.036652 75.142807,131.981598 73.952744,131.861328 
z"/>
<path fill="#394690" opacity="1.000000" stroke="none" 
	d="
M42.671448,123.896111 
	C45.063293,123.927971 47.068161,124.021828 49.501770,124.140335 
	C49.930515,124.164993 49.948753,124.513153 49.483807,124.686874 
	C45.992126,124.990425 42.965389,125.120247 39.938660,125.250061 
	C39.650562,125.012230 39.362465,124.774391 39.109436,124.250641 
	C40.191151,123.962517 41.237808,123.960312 42.671448,123.896111 
z"/>
<path fill="#F5F4F6" opacity="1.000000" stroke="none" 
	d="
M55.607002,121.019257 
	C55.256859,120.561737 55.216057,120.108856 55.244667,119.320564 
	C56.295227,118.990303 57.276382,118.995453 58.625523,118.999168 
	C58.981686,120.061424 58.969860,121.125107 58.860481,122.576309 
	C57.814068,122.317177 56.865211,121.670532 55.607002,121.019257 
z"/>
<path fill="#CDD9EA" opacity="1.000000" stroke="none" 
	d="
M40.063759,125.587128 
	C42.965389,125.120247 45.992126,124.990425 49.469887,124.860634 
	C49.920914,124.860664 50.067341,125.265030 50.091408,125.478271 
	C47.202251,125.855858 44.289032,126.020195 41.005257,126.336456 
	C40.486095,126.300308 40.337482,126.112259 40.063759,125.587128 
z"/>
<path fill="#C7D4E9" opacity="1.000000" stroke="none" 
	d="
M75.028473,127.645905 
	C74.689903,127.988693 74.420677,127.829590 74.032974,127.087051 
	C73.528755,126.503197 73.201508,126.403793 72.874268,126.304390 
	C72.183800,126.278923 71.493332,126.253456 70.216415,126.187103 
	C69.458008,126.150101 69.286041,126.153976 69.123688,125.804825 
	C69.151474,125.217049 69.169647,124.982307 69.589554,124.826950 
	C71.623589,124.882278 73.255882,124.858223 74.888184,124.834175 
	C74.938553,125.637115 74.988930,126.440048 75.028473,127.645905 
z"/>
<path fill="#F5F4F6" opacity="1.000000" stroke="none" 
	d="
M79.791191,106.893097 
	C79.053169,107.283569 78.385788,107.380264 77.718399,107.476959 
	C77.919922,106.901604 78.121452,106.326241 78.322983,105.750885 
	C78.835930,106.033699 79.348877,106.316513 79.791191,106.893097 
z"/>
<path fill="#F5F4F6" opacity="1.000000" stroke="none" 
	d="
M80.972946,118.127121 
	C81.127586,118.964325 80.921745,119.801682 80.488182,120.869812 
	C80.377800,120.109489 80.495132,119.118385 80.972946,118.127121 
z"/>
<path fill="#3E4B90" opacity="1.000000" stroke="none" 
	d="
M74.903503,124.639328 
	C73.255882,124.858223 71.623589,124.882278 69.670319,124.635178 
	C69.544449,124.160896 69.770187,124.001038 70.026573,123.884430 
	C70.778023,123.902092 71.529480,123.919754 72.953644,123.943268 
	C74.040993,123.984947 74.455643,124.020775 74.870285,124.056602 
	C74.870285,124.056602 74.918831,124.444481 74.903503,124.639328 
z"/>
<path fill="#F5E2E1" opacity="1.000000" stroke="none" 
	d="
M35.216743,66.985481 
	C35.722389,67.428635 36.228035,67.871796 36.733681,68.314949 
	C35.843094,68.168510 34.952503,68.022072 34.311829,67.482666 
	C34.780079,67.054962 34.998409,67.020218 35.216743,66.985481 
z"/>
<path fill="#F5F4F6" opacity="1.000000" stroke="none" 
	d="
M91.024918,123.823456 
	C91.461197,123.255692 91.897484,122.687927 92.591812,122.029007 
	C93.016731,122.543449 93.183624,123.149055 92.793900,123.895874 
	C91.833160,123.965889 91.429039,123.894676 91.024918,123.823456 
z"/>
<path fill="#CBDCEB" opacity="1.000000" stroke="none" 
	d="
M92.916374,125.813126 
	C91.435783,126.081108 89.973236,126.027657 88.057014,125.997284 
	C87.692688,125.853149 87.782043,125.685913 87.954567,125.246445 
	C88.037727,124.974213 87.976959,124.966072 88.377487,124.993698 
	C90.153709,124.963699 91.529419,124.906075 92.905121,124.848457 
	C92.914886,125.062866 92.924652,125.277283 92.916374,125.813126 
z"/>
<path fill="#C7D2E4" opacity="1.000000" stroke="none" 
	d="
M83.995949,125.019363 
	C82.925385,125.411781 81.854828,125.804192 80.187180,126.165024 
	C79.590096,126.133453 79.116325,126.138489 79.116325,126.138489 
	C79.107269,125.808891 79.205276,125.515022 80.034790,125.129288 
	C81.771477,125.007584 82.883713,125.013474 83.995949,125.019363 
z"/>
<path fill="#2E3F8E" opacity="1.000000" stroke="none" 
	d="
M63.034664,125.169930 
	C61.949238,125.115196 60.863819,125.060463 59.370949,125.042389 
	C58.878819,124.858742 58.794140,124.638443 58.858170,124.095367 
	C59.764065,123.829414 60.521259,123.886253 61.937130,123.945114 
	C62.939556,124.143585 63.283298,124.340042 63.627048,124.536499 
	C63.429588,124.747643 63.232128,124.958786 63.034664,125.169930 
z"/>
<path fill="#7A88BB" opacity="1.000000" stroke="none" 
	d="
M80.211983,123.012466 
	C81.815063,122.938820 83.241020,123.147308 84.800339,123.691833 
	C84.933701,124.027878 84.447289,124.043015 83.804276,124.020584 
	C82.085602,123.983170 81.009941,123.968185 79.934280,123.953194 
	C79.967804,123.733658 80.001328,123.514130 80.211983,123.012466 
z"/>
<path fill="#F5F4F6" opacity="1.000000" stroke="none" 
	d="
M75.108734,123.925903 
	C74.455643,124.020775 74.040993,123.984947 73.323181,123.871437 
	C73.526146,123.228951 74.032280,122.664146 74.828163,122.070450 
	C75.194336,122.626114 75.270752,123.210663 75.108734,123.925903 
z"/>
<path fill="#364191" opacity="1.000000" stroke="none" 
	d="
M92.912415,124.648849 
	C91.529419,124.906075 90.153709,124.963699 88.362259,125.020302 
	C88.738182,124.664040 89.529861,124.308784 90.673225,123.888496 
	C91.429039,123.894676 91.833160,123.965889 92.545242,124.046234 
	C92.853203,124.055359 92.919701,124.449249 92.912415,124.648849 
z"/>
<path fill="#384392" opacity="1.000000" stroke="none" 
	d="
M79.799683,124.209763 
	C81.009941,123.968185 82.085602,123.983170 83.561440,124.035988 
	C83.961617,124.073822 83.989250,124.546188 83.992599,124.782776 
	C82.883713,125.013474 81.771477,125.007584 80.240166,125.013046 
	C79.769081,124.838379 79.717079,124.652359 79.799683,124.209763 
z"/>
<path fill="#F9F7F7" opacity="1.000000" stroke="none" 
	d="
M48.951485,8.084721 
	C48.731979,8.394626 48.188309,8.684602 47.326591,8.961472 
	C47.548138,8.653841 48.087730,8.359317 48.951485,8.084721 
z"/>
<path fill="#E4C2BD" opacity="1.000000" stroke="none" 
	d="
M35.206444,66.635895 
	C34.998409,67.020218 34.780079,67.054962 34.236259,67.158157 
	C34.095894,66.591042 34.281013,65.955467 34.466133,65.319885 
	C34.709469,65.642021 34.952805,65.964165 35.206444,66.635895 
z"/>
<path fill="#F5F4F6" opacity="1.000000" stroke="none" 
	d="
M56.281639,108.404587 
	C56.712872,108.223389 57.400986,108.278992 58.349274,108.572678 
	C57.919136,108.754303 57.228825,108.697845 56.281639,108.404587 
z"/>
<path fill="#F5F4F6" opacity="1.000000" stroke="none" 
	d="
M86.114487,132.393433 
	C86.384224,132.063919 86.666275,132.153519 86.843193,132.741104 
	C86.573723,132.901215 86.369972,132.759018 86.114487,132.393433 
z"/>
<path fill="#F5F4F6" opacity="1.000000" stroke="none" 
	d="
M56.628036,132.248138 
	C56.816357,132.433090 56.793903,132.843796 56.542496,133.468872 
	C56.348114,133.280136 56.382687,132.876999 56.628036,132.248138 
z"/>
<path fill="#F5F4F6" opacity="1.000000" stroke="none" 
	d="
M36.419930,132.179382 
	C36.517540,132.079895 36.688610,132.502197 36.654701,132.727371 
	C36.325939,132.803711 36.226448,132.579147 36.419930,132.179382 
z"/>
<path fill="#F5F4F6" opacity="1.000000" stroke="none" 
	d="
M73.652695,108.742180 
	C73.669601,108.522415 74.032394,108.296715 74.717682,107.978134 
	C74.692986,108.168930 74.345787,108.452583 73.652695,108.742180 
z"/>
<path fill="#F5F4F6" opacity="1.000000" stroke="none" 
	d="
M44.870129,114.595612 
	C44.817715,114.783791 44.662041,114.843437 44.259445,114.863571 
	C44.164650,114.446129 44.416100,114.327148 44.870129,114.595612 
z"/>
<path fill="#6E7CAE" opacity="1.000000" stroke="none" 
	d="
M79.090225,126.365028 
	C79.116325,126.138489 79.590096,126.133453 79.813965,126.211670 
	C79.931938,126.524475 79.772705,126.714325 79.389999,126.939842 
	C79.219864,127.020241 79.064117,126.591568 79.090225,126.365028 
z"/>
<path fill="#F5F4F6" opacity="1.000000" stroke="none" 
	d="
M61.877445,114.583389 
	C61.971790,114.712166 61.500351,114.858429 61.261917,114.794693 
	C61.201115,114.381584 61.454319,114.289467 61.877445,114.583389 
z"/>
<path fill="#F5F4F6" opacity="1.000000" stroke="none" 
	d="
M70.909058,114.714828 
	C70.824646,114.891335 70.658508,114.919579 70.257111,114.855453 
	C70.290344,114.697571 70.558846,114.632072 70.909058,114.714828 
z"/>
<path fill="#E8EAF3" opacity="1.000000" stroke="none" 
	d="
M63.018139,125.573975 
	C63.232128,124.958786 63.429588,124.747643 63.627048,124.536499 
	C63.283298,124.340042 62.939556,124.143585 62.311447,123.871506 
	C67.187706,118.845108 67.366585,118.831551 69.926208,123.544708 
	C69.770187,124.001038 69.544449,124.160896 69.268585,124.555794 
	C69.169647,124.982307 69.151474,125.217049 69.158340,126.036087 
	C69.345070,126.932693 69.601738,127.084480 69.953377,127.075737 
	C67.797615,131.736145 65.663216,132.599014 62.921860,129.554657 
	C62.913803,128.134003 62.957706,127.056007 63.018139,125.573975 
z"/>
<path fill="#6E7CAC" opacity="1.000000" stroke="none" 
	d="
M72.887367,126.484650 
	C73.201508,126.403793 73.528755,126.503197 73.938896,126.868225 
	C73.853096,127.103569 73.684395,127.073280 73.259033,127.027344 
	C73.002373,127.011703 72.900467,126.664909 72.887367,126.484650 
z"/>
<path fill="#6E7CAC" opacity="1.000000" stroke="none" 
	d="
M70.014229,126.891182 
	C69.601738,127.084480 69.345070,126.932693 69.148727,126.389114 
	C69.286041,126.153976 69.458008,126.150101 69.873360,126.233215 
	C70.116753,126.320213 70.075081,126.706627 70.014229,126.891182 
z"/>
<path fill="#F5F4F6" opacity="1.000000" stroke="none" 
	d="
M41.666538,129.357285 
	C43.354427,128.260696 45.354473,124.374855 47.050350,129.654663 
	C45.223667,131.723007 43.340458,133.491791 41.666538,129.357285 
z"/>
</svg>